<?xml version="1.0" standalone="no"?>
<!DOCTYPE svg PUBLIC "-//W3C//DTD SVG 20010904//EN"
 "http://www.w3.org/TR/2001/REC-SVG-20010904/DTD/svg10.dtd">
<svg version="1.0" xmlns="http://www.w3.org/2000/svg"
 width="720.000000pt" height="720.000000pt" viewBox="0 0 720.000000 720.000000"
 preserveAspectRatio="xMidYMid meet">
<metadata>
Created by potrace 1.11, written by Peter Selinger 2001-2013
</metadata>
<g transform="translate(0.000000,720.000000) scale(0.100000,-0.100000)"
fill="#000000" stroke="none">
<path d="M3368 7195 c-2 -2 -37 -6 -78 -9 -78 -5 -256 -28 -320 -41 -14 -3
-38 -8 -55 -11 -16 -3 -34 -7 -40 -8 -5 -2 -28 -6 -50 -11 -76 -14 -260 -66
-379 -106 -335 -112 -652 -276 -966 -499 -49 -35 -237 -187 -284 -229 -79 -72
-233 -228 -296 -301 -36 -41 -68 -77 -71 -80 -17 -14 -181 -238 -235 -320 -70
-107 -196 -320 -189 -320 3 0 -11 -28 -29 -62 -19 -35 -53 -108 -76 -163 -24
-55 -49 -114 -56 -132 -43 -97 -158 -485 -169 -568 -1 -11 -10 -58 -18 -105
-9 -47 -19 -107 -22 -135 -3 -27 -8 -60 -10 -71 -26 -156 -27 -680 0 -845 2
-13 6 -44 10 -69 3 -25 8 -63 11 -85 13 -89 58 -288 94 -415 105 -361 249
-676 455 -990 68 -104 222 -311 244 -330 3 -3 35 -39 71 -80 211 -245 533
-513 827 -690 308 -186 690 -343 1013 -417 36 -8 70 -16 75 -17 6 -1 19 -5 30
-9 11 -3 38 -9 60 -12 46 -8 139 -23 175 -29 14 -2 52 -7 85 -10 33 -4 83 -9
110 -13 113 -14 705 -6 734 11 3 2 34 7 69 10 34 4 86 11 115 17 29 5 63 12
77 14 14 3 36 7 50 10 14 3 36 8 50 11 123 25 394 107 550 169 109 42 421 194
475 231 20 13 38 24 41 24 8 0 205 131 283 188 511 375 931 902 1171 1467 23
55 49 114 56 132 23 52 101 290 120 368 1 6 10 38 19 72 9 35 18 71 20 80 24
125 45 238 49 278 4 28 9 66 11 85 14 107 20 239 19 440 0 256 -8 362 -45 575
-10 61 -20 119 -23 130 -4 20 -24 103 -32 138 -2 9 -6 26 -8 36 -51 229 -209
620 -356 881 -65 114 -220 344 -302 446 -290 362 -593 628 -993 871 -230 140
-595 296 -857 367 -114 31 -165 44 -203 51 -22 5 -44 9 -50 11 -5 1 -26 5 -45
8 -19 4 -42 9 -50 11 -23 7 -177 28 -300 41 -55 6 -557 14 -562 9z"/>
</g>
</svg>
